<svg xmlns="http://www.w3.org/2000/svg" version="1.1" xmlns:xlink="http://www.w3.org/1999/xlink" xmlns:svgjs="http://svgjs.dev/svgjs" width="1500" height="556" viewBox="0 0 1500 556"><g transform="matrix(1,0,0,1,-0.9090909090909918,-0.7081285797440273)"><svg viewBox="0 0 396 147" data-background-color="#ffffff" preserveAspectRatio="xMidYMid meet" height="556" width="1500" xmlns="http://www.w3.org/2000/svg" xmlns:xlink="http://www.w3.org/1999/xlink"><g id="tight-bounds" transform="matrix(1,0,0,1,0.2400000000000091,0.18722104536398376)"><svg viewBox="0 0 395.52 146.62555790927203" height="146.62555790927203" width="395.52"><g><svg viewBox="0 0 662.2288023693036 245.49875508441593" height="146.62555790927203" width="395.52"><g transform="matrix(1,0,0,1,264.7312023693037,63.97143086192604)"><svg viewBox="0 0 397.4975999999999 117.55589336056386" height="117.55589336056386" width="397.4975999999999"><g id="textblocktransform"><svg viewBox="0 0 397.4975999999999 117.55589336056386" height="117.55589336056386" width="397.4975999999999" id="textblock"><g><rect width="397.4975999999999" height="7.287675887474027" x="0" y="89.39658514042199" fill="#ee3e38" opacity="1" stroke-width="0" stroke="transparent" fill-opacity="1" class="rect-yte-0" data-fill-palette-color="primary" rx="1%" id="yte-0" data-palette-color="#ee3e38"></rect></g><g transform="matrix(1,0,0,1,0.9887999999999693,0)"><svg viewBox="0 0 395.52 80.81162663423531" height="80.81162663423531" width="395.52"><g transform="matrix(1,0,0,1,0,0)"><svg width="395.52" viewBox="1.5 -32.9 164.43 33.6" height="80.81162663423531" data-palette-color="#ee3e38"><path d="M14.9-27.25L14.7-27.25Q13.95-25.15 12.93-22.25 11.9-19.35 10.83-16.28 9.75-13.2 8.8-10.55L8.8-10.55 8.55-9.8Q8.25-8.9 7.8-7.55 7.35-6.2 6.85-4.73 6.35-3.25 5.9-1.98 5.45-0.7 5.2 0.1L5.2 0.1Q4.85 0.25 4.48 0.33 4.1 0.4 3.55 0.4L3.55 0.4Q2.75 0.4 2.13-0.03 1.5-0.45 1.5-1.4L1.5-1.4Q1.5-1.85 1.65-2.33 1.8-2.8 2-3.35L2-3.35Q2.6-5.05 3.48-7.5 4.35-9.95 5.4-12.85 6.45-15.75 7.6-18.8 8.75-21.85 9.85-24.75 10.95-27.65 11.9-30.05L11.9-30.05Q12.3-30.25 13.1-30.45 13.9-30.65 14.75-30.65L14.75-30.65Q15.75-30.65 16.68-30.35 17.6-30.05 17.85-29.35L17.85-29.35Q19.05-26.45 20.43-22.78 21.8-19.1 23.2-15.13 24.6-11.15 25.88-7.4 27.15-3.65 28.15-0.6L28.15-0.6Q27.8-0.15 27.23 0.13 26.65 0.4 25.95 0.4L25.95 0.4Q25 0.4 24.5-0.03 24-0.45 23.65-1.45L23.65-1.45 20.9-9.6 20.5-11Q19.5-14.05 18.43-17.15 17.35-20.25 16.43-22.9 15.5-25.55 14.9-27.25L14.9-27.25ZM6.6-8.1L7.9-11.45 21.85-11.45 22.65-8.1 6.6-8.1ZM50.65-23.55L50.65-23.55Q51.5-23.55 52.02-23.1 52.55-22.65 52.55-21.8L52.55-21.8Q52.55-21.15 52-19.35 51.45-17.55 50.55-15.05 49.65-12.55 48.57-9.83 47.5-7.1 46.37-4.58 45.25-2.05 44.3-0.2L44.3-0.2Q44.05 0 43.42 0.15 42.8 0.3 42.1 0.3L42.1 0.3Q41.25 0.3 40.6 0.03 39.95-0.25 39.7-0.75L39.7-0.75Q39.15-1.75 38.27-3.68 37.4-5.6 36.4-8.05 35.4-10.5 34.37-13.13 33.35-15.75 32.5-18.18 31.65-20.6 31.1-22.45L31.1-22.45Q31.45-22.95 32.05-23.25 32.65-23.55 33.25-23.55L33.25-23.55Q34.15-23.55 34.65-23.1 35.15-22.65 35.5-21.6L35.5-21.6 38.6-12.65Q39-11.5 39.65-9.8 40.3-8.1 40.95-6.4 41.6-4.7 42-3.55L42-3.55 42.2-3.55Q44.2-8.6 45.95-13.53 47.7-18.45 48.95-23.15L48.95-23.15Q49.6-23.55 50.65-23.55ZM57.74-30.4L57.74-30.4Q57.74-31.45 58.49-32.18 59.24-32.9 60.34-32.9L60.34-32.9Q61.49-32.9 62.2-32.18 62.89-31.45 62.89-30.4L62.89-30.4Q62.89-29.35 62.2-28.63 61.49-27.9 60.34-27.9L60.34-27.9Q59.24-27.9 58.49-28.63 57.74-29.35 57.74-30.4ZM58.34-13.2L62.34-13.2 62.34-0.1Q62.09 0 61.59 0.13 61.09 0.25 60.49 0.25L60.49 0.25Q59.45 0.25 58.89-0.18 58.34-0.6 58.34-1.55L58.34-1.55 58.34-13.2ZM62.34-11.25L58.34-11.25 58.34-23Q58.59-23.1 59.12-23.23 59.64-23.35 60.24-23.35L60.24-23.35Q61.3-23.35 61.82-22.93 62.34-22.5 62.34-21.5L62.34-21.5 62.34-11.25ZM78.39-2.6L78.39-2.6Q80.49-2.6 81.87-3.03 83.24-3.45 83.84-3.85L83.84-3.85 83.84-11.1 77.64-10.45Q75.04-10.25 73.79-9.3 72.54-8.35 72.54-6.55L72.54-6.55Q72.54-4.7 74.02-3.65 75.49-2.6 78.39-2.6ZM78.34-23.75L78.34-23.75Q82.69-23.75 85.24-21.8 87.79-19.85 87.79-15.65L87.79-15.65 87.79-3.8Q87.79-2.7 87.37-2.13 86.94-1.55 86.09-1.05L86.09-1.05Q84.89-0.4 82.89 0.15 80.89 0.7 78.39 0.7L78.39 0.7Q73.69 0.7 71.12-1.15 68.54-3 68.54-6.5L68.54-6.5Q68.54-9.75 70.72-11.48 72.89-13.2 76.74-13.55L76.74-13.55 83.84-14.25 83.84-15.65Q83.84-18.15 82.34-19.3 80.84-20.45 78.29-20.45L78.29-20.45Q76.24-20.45 74.37-19.85 72.49-19.25 71.04-18.5L71.04-18.5Q70.64-18.85 70.32-19.33 69.99-19.8 69.99-20.3L69.99-20.3Q69.99-21.6 71.44-22.3L71.44-22.3Q72.79-23 74.57-23.38 76.34-23.75 78.34-23.75ZM95.14-13.2L99.14-13.2 99.14-6.3Q99.14-4.3 100.29-3.48 101.44-2.65 103.44-2.65L103.44-2.65Q104.29-2.65 105.34-2.95 106.39-3.25 107.09-3.65L107.09-3.65Q107.39-3.35 107.64-2.9 107.89-2.45 107.89-1.85L107.89-1.85Q107.89-0.75 106.59-0.05 105.29 0.65 102.99 0.65L102.99 0.65Q99.49 0.65 97.31-0.9 95.14-2.45 95.14-6.05L95.14-6.05 95.14-13.2ZM97.19-19.3L97.19-22.6 107.34-22.6Q107.49-22.4 107.64-21.95 107.79-21.5 107.79-21L107.79-21Q107.79-20.2 107.39-19.75 106.99-19.3 106.29-19.3L106.29-19.3 97.19-19.3ZM99.14-11.7L95.14-11.7 95.14-29.8Q95.39-29.9 95.92-30.03 96.44-30.15 97.04-30.15L97.04-30.15Q98.09-30.15 98.62-29.73 99.14-29.3 99.14-28.35L99.14-28.35 99.14-11.7ZM113.34-30.4L113.34-30.4Q113.34-31.45 114.09-32.18 114.84-32.9 115.94-32.9L115.94-32.9Q117.09-32.9 117.79-32.18 118.49-31.45 118.49-30.4L118.49-30.4Q118.49-29.35 117.79-28.63 117.09-27.9 115.94-27.9L115.94-27.9Q114.84-27.9 114.09-28.63 113.34-29.35 113.34-30.4ZM113.94-13.2L117.94-13.2 117.94-0.1Q117.69 0 117.19 0.13 116.69 0.25 116.09 0.25L116.09 0.25Q115.04 0.25 114.49-0.18 113.94-0.6 113.94-1.55L113.94-1.55 113.94-13.2ZM117.94-11.25L113.94-11.25 113.94-23Q114.19-23.1 114.71-23.23 115.24-23.35 115.84-23.35L115.84-23.35Q116.89-23.35 117.41-22.93 117.94-22.5 117.94-21.5L117.94-21.5 117.94-11.25ZM136.44-20.4L136.44-20.4Q133.03-20.4 130.78-18.1 128.53-15.8 128.53-11.5L128.53-11.5Q128.53-7.25 130.71-4.95 132.88-2.65 136.44-2.65L136.44-2.65Q138.53-2.65 139.94-3.23 141.34-3.8 142.44-4.55L142.44-4.55Q142.99-4.25 143.34-3.8 143.69-3.35 143.69-2.7L143.69-2.7Q143.69-1.3 141.61-0.33 139.53 0.65 136.44 0.65L136.44 0.65Q132.99 0.65 130.26-0.68 127.53-2 125.98-4.7 124.44-7.4 124.44-11.5L124.44-11.5Q124.44-15.55 126.03-18.28 127.64-21 130.36-22.38 133.09-23.75 136.34-23.75L136.34-23.75Q139.44-23.75 141.46-22.7 143.49-21.65 143.49-20.3L143.49-20.3Q143.49-19.7 143.13-19.25 142.78-18.8 142.24-18.55L142.24-18.55Q141.13-19.3 139.81-19.85 138.49-20.4 136.44-20.4ZM165.93-6.15L165.93-6.15Q165.93-2.95 163.58-1.15 161.23 0.65 156.78 0.65L156.78 0.65Q152.98 0.65 150.58-0.53 148.18-1.7 148.18-3.1L148.18-3.1Q148.18-3.7 148.51-4.28 148.83-4.85 149.48-5.2L149.48-5.2Q150.83-4.25 152.63-3.45 154.43-2.65 156.73-2.65L156.73-2.65Q161.93-2.65 161.93-6.15L161.93-6.15Q161.93-7.6 161.06-8.53 160.18-9.45 158.48-9.85L158.48-9.85 154.33-10.95Q151.28-11.7 149.88-13.28 148.48-14.85 148.48-17.2L148.48-17.2Q148.48-19.85 150.63-21.8 152.78-23.75 157.18-23.75L157.18-23.75Q159.53-23.75 161.28-23.28 163.03-22.8 164.01-22.03 164.98-21.25 164.98-20.35L164.98-20.35Q164.98-19.7 164.66-19.2 164.33-18.7 163.78-18.45L163.78-18.45Q163.18-18.85 162.26-19.33 161.33-19.8 160.08-20.13 158.83-20.45 157.33-20.45L157.33-20.45Q155.13-20.45 153.78-19.6 152.43-18.75 152.43-17.2L152.43-17.2Q152.43-16.1 153.21-15.28 153.98-14.45 155.68-14.05L155.68-14.05 159.13-13.2Q162.53-12.4 164.23-10.68 165.93-8.95 165.93-6.15Z" opacity="1" transform="matrix(1,0,0,1,0,0)" fill="#ee3e38" class="wordmark-text-0" data-fill-palette-color="primary" id="text-0"></path></svg></g></svg></g><g transform="matrix(1,0,0,1,0,105.2692195340827)"><svg viewBox="0 0 232.96128 12.28667382648117" height="12.28667382648117" width="232.96128"><g transform="matrix(1,0,0,1,0,0)"><svg width="232.96128" viewBox="3.2 -36.75757568307199 789.77 41.65757568307199" height="12.28667382648117" data-palette-color="#8d021f"><path d="M17.15-31.15Q17.15-34.25 17.2-35L17.2-35Q17.2-35.95 17.85-36.15 18.5-36.35 19.75-36.35L19.75-36.35Q20.85-36.35 22.58-36.48 24.3-36.6 25.25-36.75L25.25-36.75Q25.95-36.8 26.25-36.52 26.55-36.25 26.55-35.6L26.55-35.6Q26.55-35.4 26.45-34.5L26.45-34.5Q26.35-33.75 26.35-24.55L26.35-24.55 26.35-13.25Q26.35-10.7 26.43-7.63 26.5-4.55 26.6-2.1 26.7 0.35 26.7-0.75L26.7-0.75Q26.7 0.05 25.9 0.05L25.9 0.05Q25.55 0.05 25.3 0L25.3 0Q25.1-0.05 24.5-0.05L24.5-0.05Q23.9-0.05 22.6 0.05L22.6 0.05Q21.2 0.15 20.65 0.15L20.65 0.15Q19.7 0.15 19.23-0.25 18.75-0.65 18.25-1.7L18.25-1.7 17.4-3.4Q15.9-6.75 14.75-8.65L14.75-8.65Q14.1-9.75 11.45-14.7L11.45-14.7 9.25-18.85 9.25-16.95 9.25-15.8Q9.25-15.4 9.22-14.8 9.2-14.2 9.25-13.45L9.25-13.45Q9.25-10.85 9.33-6.65 9.4-2.45 9.55-1.6L9.55-1.6Q9.6-1.35 9.6-1L9.6-1Q9.6-0.5 9.4-0.38 9.2-0.25 8.65-0.3L8.65-0.3Q7.85-0.3 6.78-0.2 5.7-0.1 4.75 0L4.75 0Q4 0.1 3.78-0.25 3.55-0.6 3.6-1.8L3.6-1.8Q3.6-3.6 3.45-8.15L3.45-8.15Q3.25-12.9 3.2-16.4L3.2-16.4Q3.2-19.95 3.35-23.6L3.35-23.6Q3.45-28.2 3.45-29.9L3.45-29.9Q3.45-32.2 3.3-33.25L3.3-33.25Q3.2-34.15 3.2-34.4L3.2-34.4Q3.2-35.3 3.5-35.63 3.8-35.95 4.3-35.95L4.3-35.95Q4.55-35.95 5.3-35.93 6.05-35.9 7.45-36.25L7.45-36.25Q8-36.35 8.55-36.35L8.55-36.35Q8.85-36.35 9.4-36.3 9.95-36.25 10.85-36.25L10.85-36.25Q12-36.25 12.78-35.35 13.55-34.45 14.45-32.8L14.45-32.8 14.95-31.9Q15.55-30.8 16.4-29.55L16.4-29.55 17.15-28.4 17.15-31.15ZM58.35-1Q58.6-0.5 58.6-0.35L58.6-0.35Q58.6 0.05 57.7 0.05L57.7 0.05 54.1 0.05Q53.9 0.05 53.7-0.3 53.5-0.65 53.35-1 53.2-1.35 53.1-1.6L53.1-1.6Q52.85-2.1 52.17-3.9 51.5-5.7 51.15-6.75L51.15-6.75Q51-7.25 50.55-8.22 50.1-9.2 49.9-9.6L49.9-9.6Q49.7-10.2 49.52-10.4 49.35-10.6 49-10.6L49-10.6Q48.65-10.6 48.12-10.55 47.6-10.5 47-10.45L47-10.45Q46.6-10.35 44.5-10.35L44.5-10.35Q43.05-10.35 41.65-10.25L41.65-10.25Q41.2-10.2 40.05-10.2L40.05-10.2 37.4-10.25Q37.15-10.25 37.02-10.05 36.9-9.85 36.85-9.58 36.8-9.3 36.75-9.15L36.75-9.15 36.45-7.9Q36.3-7.2 36.07-6.28 35.85-5.35 35.7-4.55L35.7-4.55 35.15-2.4 34.75-0.95Q34.6-0.35 34.47-0.18 34.35 0 34.1 0L34.1 0 31.15 0Q30.9 0 30.9-0.2L30.9-0.2Q30.9-0.3 31.1-0.9L31.1-0.9Q31.5-1.85 31.8-2.8L31.8-2.8Q33.65-9 34-10.9L34-10.9Q34.45-13.4 35.85-17.35L35.85-17.35Q36.3-19.05 36.7-20.45L36.7-20.45Q36.85-21.15 37.15-22.15L37.15-22.15Q38.1-25.65 39.05-28.7L39.05-28.7 40.3-32.7Q40.7-34.25 41.3-35.9L41.3-35.9Q41.6-36.65 42-36.25L42-36.25Q42.3-36.05 42.45-35.55 42.6-35.05 42.65-34.85L42.65-34.85Q42.8-34.25 45.3-28.85L45.3-28.85Q46.3-26.8 47.45-23.5L47.45-23.5Q47.95-22.05 50.2-17.25L50.2-17.25Q51.35-14.9 51.7-14L51.7-14Q52.5-12.25 56-5.5L56-5.5 56.6-4.25Q57.75-1.7 58.35-1L58.35-1ZM45.25-17.5Q45.6-17.55 45.85-17.55 46.1-17.55 46.25-17.6 46.4-17.65 46.4-17.75L46.4-17.75Q46.4-17.85 46.25-18.15L46.25-18.15Q46-18.6 45.1-20.68 44.2-22.75 43.85-23.8L43.85-23.8Q43.35-25 43.07-25.8 42.8-26.6 42.65-26.9L42.65-26.9Q42.55-27.15 42.42-27.4 42.3-27.65 42.2-27.8 42.1-27.95 42-27.95L42-27.95Q41.85-27.95 41.67-27.2 41.5-26.45 41.4-26.05L41.4-26.05Q40.5-23.15 40.1-21.65L40.1-21.65Q39.9-20.9 39.52-19.83 39.15-18.75 39-18.35L39-18.35Q38.85-17.85 38.85-17.55L38.85-17.55Q38.85-17.25 39.3-17.25L39.3-17.25Q40.35-17.25 42.52-17.32 44.7-17.4 45.25-17.5L45.25-17.5ZM71.8-6.55Q72.15-7.6 72.87-9.58 73.59-11.55 74.05-12.55L74.05-12.55Q74.55-13.45 75.65-16.73 76.75-20 77.45-22.2L77.45-22.2 79.55-27.4Q80.59-29.85 80.8-30.45L80.8-30.45Q81.25-31.5 81.75-33.2L81.75-33.2 82.25-34.6Q82.34-35 82.52-35.1 82.7-35.2 83.05-35.05L83.05-35.05Q83.34-34.95 83.77-34.95 84.2-34.95 84.3-34.95L84.3-34.95Q84.59-34.95 84.59-34.8L84.59-34.8Q84.59-34.7 84.4-34.3L84.4-34.3Q83.4-31.65 82.7-30.45L82.7-30.45Q82.2-29.55 80.3-24.08 78.4-18.6 77.84-16.85L77.84-16.85Q77.8-16.75 75.55-10.45L75.55-10.45Q74.2-6.65 73.9-5.85L73.9-5.85Q73.34-4.5 72.72-2.73 72.09-0.95 72-0.75L72-0.75Q71.9-0.35 71.77-0.25 71.65-0.15 71.34-0.15L71.34-0.15Q71.09-0.15 71-0.23 70.9-0.3 70.87-0.4 70.84-0.5 70.8-0.55L70.8-0.55 70-3.05Q68.59-7.6 68.25-8.55L68.25-8.55 64.84-18.15Q64.89-18.05 63.55-22.3L63.55-22.3Q62.7-25.3 61.95-27.5L61.95-27.5Q61.7-28.05 60.84-31.35L60.84-31.35 60.2-33.9Q60-34.45 60-34.8L60-34.8Q60-35 60.09-35.05 60.2-35.1 60.3-35.13 60.4-35.15 60.45-35.15L60.45-35.15 62.2-35.15 62.34-35.15Q62.8-35.15 62.95-35 63.09-34.85 63.15-34.63 63.2-34.4 63.25-34.3L63.25-34.3Q63.55-33.6 64.2-30.7L64.2-30.7Q64.64-28.85 66.05-24.55L66.05-24.55Q66.3-23.75 67.02-21.5 67.75-19.25 68-18.2L68-18.2Q68.65-15.55 69.8-12.1L69.8-12.1 70.34-10.55Q70.95-8.65 71.4-7.45L71.4-7.45Q71.75-6.65 71.8-6.55L71.8-6.55ZM89.74-35.25Q90.39-35.2 91.02-35.23 91.64-35.25 92.09-35.25L92.09-35.25Q93.19-35.25 93.69-35.2L93.69-35.2Q94.29-35.15 94.54-34.95 94.79-34.75 94.79-34.4L94.79-34.4Q94.79-34.15 94.74-33.85 94.69-33.55 94.64-33.3L94.64-33.3Q94.09-29.05 94.04-24.55L94.04-24.55Q93.99-23.25 93.99-20.55L93.99-20.55 94.04-14.5Q94.09-13.75 94.09-12.95L94.09-12.95 94.14-10.95Q94.24-8.35 94.24-7.1L94.24-7.1Q94.24-6.15 94.19-5.95L94.19-5.95Q94.14-5.75 94.14-4.8L94.14-4.8 94.19-2.05Q94.24-1.45 94.24-0.55L94.24-0.55Q94.29 0.1 93.87 0.28 93.44 0.45 92.74 0.4L92.74 0.4 88.19 0.4Q87.44 0.45 87.24 0.08 87.04-0.3 86.99-1.15L86.99-1.15Q86.89-1.5 87.09-3L87.09-3Q87.29-4.4 87.29-5.4L87.29-5.4Q87.29-5.75 87.64-12.15L87.64-12.15Q87.94-16.85 87.94-17.3L87.94-17.3 88.04-22.2 88.14-26.75 88.24-29.45 88.34-31.25 88.34-33.35Q88.34-35.3 89.34-35.3L89.34-35.3Q89.59-35.3 89.74-35.25L89.74-35.25ZM110.94-35.4Q114.34-35.4 116.12-34.25 117.89-33.1 118.59-32.13 119.29-31.15 119.49-30.95L119.49-30.95Q119.89-30.5 119.89-30L119.89-30Q119.89-29.4 119.44-28.95L119.44-28.95Q118.99-28.5 118.32-27.95 117.64-27.4 117.09-27L117.09-27Q116.84-26.85 116.64-26.85L116.64-26.85Q116.19-26.85 115.74-27.3L115.74-27.3Q115.64-27.4 114.29-28.98 112.94-30.55 110.24-30.55L110.24-30.55Q108.19-30.55 106.69-28.38 105.19-26.2 104.42-23.13 103.64-20.05 103.64-17.4L103.64-17.4Q103.64-14.65 104.44-11.55 105.24-8.45 107.02-6.25 108.79-4.05 111.49-4.05L111.49-4.05Q115.09-4.05 116.99-6.85L116.99-6.85Q117.79-8.15 118.04-9.7L118.04-9.7 116.59-9.7 114.34-9.75 109.29-9.8Q108.44-9.8 108.44-10.6L108.44-10.6 108.44-12.55Q108.44-13.05 108.59-13.18 108.74-13.3 108.99-13.3L108.99-13.3 111.29-13.3 121.54-13.55Q121.99-13.55 122.22-13.1 122.44-12.65 122.39-11.9L122.39-11.9Q122.39-10.15 121.74-7.38 121.09-4.6 118.54-1.98 115.99 0.65 110.94 0.65L110.94 0.65Q107.19 0.65 104.52-2.2 101.84-5.05 100.52-9.53 99.19-14 99.19-18.7L99.19-18.7Q99.19-23.1 100.82-26.95 102.44-30.8 105.17-33.1 107.89-35.4 110.94-35.4L110.94-35.4ZM152.39-1Q152.64-0.5 152.64-0.35L152.64-0.35Q152.64 0.05 151.74 0.05L151.74 0.05 148.14 0.05Q147.94 0.05 147.74-0.3 147.54-0.65 147.39-1 147.24-1.35 147.14-1.6L147.14-1.6Q146.89-2.1 146.21-3.9 145.54-5.7 145.19-6.75L145.19-6.75Q145.04-7.25 144.59-8.22 144.14-9.2 143.94-9.6L143.94-9.6Q143.74-10.2 143.56-10.4 143.39-10.6 143.04-10.6L143.04-10.6Q142.69-10.6 142.16-10.55 141.64-10.5 141.04-10.45L141.04-10.45Q140.64-10.35 138.54-10.35L138.54-10.35Q137.09-10.35 135.69-10.25L135.69-10.25Q135.24-10.2 134.09-10.2L134.09-10.2 131.44-10.25Q131.19-10.25 131.06-10.05 130.94-9.85 130.89-9.58 130.84-9.3 130.79-9.15L130.79-9.15 130.49-7.9Q130.34-7.2 130.11-6.28 129.89-5.35 129.74-4.55L129.74-4.55 129.19-2.4 128.79-0.95Q128.64-0.35 128.51-0.18 128.39 0 128.14 0L128.14 0 125.19 0Q124.94 0 124.94-0.2L124.94-0.2Q124.94-0.3 125.14-0.9L125.14-0.9Q125.54-1.85 125.84-2.8L125.84-2.8Q127.69-9 128.04-10.9L128.04-10.9Q128.49-13.4 129.89-17.35L129.89-17.35Q130.34-19.05 130.74-20.45L130.74-20.45Q130.89-21.15 131.19-22.15L131.19-22.15Q132.14-25.65 133.09-28.7L133.09-28.7 134.34-32.7Q134.74-34.25 135.34-35.9L135.34-35.9Q135.64-36.65 136.04-36.25L136.04-36.25Q136.34-36.05 136.49-35.55 136.64-35.05 136.69-34.85L136.69-34.85Q136.84-34.25 139.34-28.85L139.34-28.85Q140.34-26.8 141.49-23.5L141.49-23.5Q141.99-22.05 144.24-17.25L144.24-17.25Q145.39-14.9 145.74-14L145.74-14Q146.54-12.25 150.04-5.5L150.04-5.5 150.64-4.25Q151.79-1.7 152.39-1L152.39-1ZM139.29-17.5Q139.64-17.55 139.89-17.55 140.14-17.55 140.29-17.6 140.44-17.65 140.44-17.75L140.44-17.75Q140.44-17.85 140.29-18.15L140.29-18.15Q140.04-18.6 139.14-20.68 138.24-22.75 137.89-23.8L137.89-23.8Q137.39-25 137.11-25.8 136.84-26.6 136.69-26.9L136.69-26.9Q136.59-27.15 136.46-27.4 136.34-27.65 136.24-27.8 136.14-27.95 136.04-27.95L136.04-27.95Q135.89-27.95 135.71-27.2 135.54-26.45 135.44-26.05L135.44-26.05Q134.54-23.15 134.14-21.65L134.14-21.65Q133.94-20.9 133.56-19.83 133.19-18.75 133.04-18.35L133.04-18.35Q132.89-17.85 132.89-17.55L132.89-17.55Q132.89-17.25 133.34-17.25L133.34-17.25Q134.39-17.25 136.56-17.32 138.74-17.4 139.29-17.5L139.29-17.5ZM179.79-35.95Q180.39-35.9 180.51-35.65 180.64-35.4 180.61-34.98 180.59-34.55 180.59-34.35L180.59-34.35Q180.64-33.7 180.34-33.45 180.04-33.2 179.39-33.2L179.39-33.2Q178.99-33.2 177.86-33.15 176.74-33.1 175.14-33.15L175.14-33.15 174.94-33.15 174.84-24.1 174.79-15.3Q174.79-13.3 175.01-10.23 175.24-7.15 175.29-6.35L175.29-6.35Q175.59-2.35 175.59-1.85L175.59-1.85Q175.64-0.85 175.14-0.55 174.64-0.25 173.39-0.25L173.39-0.25 171.19-0.3Q170.94-0.3 162.99-0.45L162.99-0.45 159.89-0.5Q159.39-0.5 159.39-1.5L159.39-1.5Q159.39-1.85 159.49-2.85L159.49-2.85Q159.59-4.15 159.59-4.85L159.59-4.85Q159.49-6.15 159.49-9.4L159.49-9.4Q159.49-13.75 159.61-18.7 159.74-23.65 159.94-26.15L159.94-26.15Q160.04-27.45 160.04-29.65L160.04-29.65Q160.04-32.1 159.89-33.35L159.89-33.35 158.99-33.4 154.84-33.3Q154.44-33.3 154.44-34.1L154.44-34.1 154.49-35.2Q154.49-35.6 154.61-35.73 154.74-35.85 155.04-35.85L155.04-35.85Q155.24-35.85 155.54-35.8 155.84-35.75 156.24-35.75L156.24-35.75 166.89-35.8 175.59-35.9Q177.64-35.95 179.79-35.95L179.79-35.95ZM186.63-35.25Q187.28-35.2 187.91-35.23 188.53-35.25 188.98-35.25L188.98-35.25Q190.08-35.25 190.58-35.2L190.58-35.2Q191.18-35.15 191.43-34.95 191.68-34.75 191.68-34.4L191.68-34.4Q191.68-34.15 191.63-33.85 191.58-33.55 191.53-33.3L191.53-33.3Q190.98-29.05 190.93-24.55L190.93-24.55Q190.88-23.25 190.88-20.55L190.88-20.55 190.93-14.5Q190.98-13.75 190.98-12.95L190.98-12.95 191.03-10.95Q191.13-8.35 191.13-7.1L191.13-7.1Q191.13-6.15 191.08-5.95L191.08-5.95Q191.03-5.75 191.03-4.8L191.03-4.8 191.08-2.05Q191.13-1.45 191.13-0.55L191.13-0.55Q191.18 0.1 190.76 0.28 190.33 0.45 189.63 0.4L189.63 0.4 185.08 0.4Q184.33 0.45 184.13 0.08 183.93-0.3 183.88-1.15L183.88-1.15Q183.78-1.5 183.98-3L183.98-3Q184.18-4.4 184.18-5.4L184.18-5.4Q184.18-5.75 184.53-12.15L184.53-12.15Q184.83-16.85 184.83-17.3L184.83-17.3 184.93-22.2 185.03-26.75 185.13-29.45 185.23-31.25 185.23-33.35Q185.23-35.3 186.23-35.3L186.23-35.3Q186.48-35.3 186.63-35.25L186.63-35.25ZM211.28-31.15Q211.28-34.25 211.33-35L211.33-35Q211.33-35.95 211.98-36.15 212.63-36.35 213.88-36.35L213.88-36.35Q214.98-36.35 216.71-36.48 218.43-36.6 219.38-36.75L219.38-36.75Q220.08-36.8 220.38-36.52 220.68-36.25 220.68-35.6L220.68-35.6Q220.68-35.4 220.58-34.5L220.58-34.5Q220.48-33.75 220.48-24.55L220.48-24.55 220.48-13.25Q220.48-10.7 220.56-7.63 220.63-4.55 220.73-2.1 220.83 0.35 220.83-0.75L220.83-0.75Q220.83 0.05 220.03 0.05L220.03 0.05Q219.68 0.05 219.43 0L219.43 0Q219.23-0.05 218.63-0.05L218.63-0.05Q218.03-0.05 216.73 0.05L216.73 0.05Q215.33 0.15 214.78 0.15L214.78 0.15Q213.83 0.15 213.36-0.25 212.88-0.65 212.38-1.7L212.38-1.7 211.53-3.4Q210.03-6.75 208.88-8.65L208.88-8.65Q208.23-9.75 205.58-14.7L205.58-14.7 203.38-18.85 203.38-16.95 203.38-15.8Q203.38-15.4 203.36-14.8 203.33-14.2 203.38-13.45L203.38-13.45Q203.38-10.85 203.46-6.65 203.53-2.45 203.68-1.6L203.68-1.6Q203.73-1.35 203.73-1L203.73-1Q203.73-0.5 203.53-0.38 203.33-0.25 202.78-0.3L202.78-0.3Q201.98-0.3 200.91-0.2 199.83-0.1 198.88 0L198.88 0Q198.13 0.1 197.91-0.25 197.68-0.6 197.73-1.8L197.73-1.8Q197.73-3.6 197.58-8.15L197.58-8.15Q197.38-12.9 197.33-16.4L197.33-16.4Q197.33-19.95 197.48-23.6L197.48-23.6Q197.58-28.2 197.58-29.9L197.58-29.9Q197.58-32.2 197.43-33.25L197.43-33.25Q197.33-34.15 197.33-34.4L197.33-34.4Q197.33-35.3 197.63-35.63 197.93-35.95 198.43-35.95L198.43-35.95Q198.68-35.95 199.43-35.93 200.18-35.9 201.58-36.25L201.58-36.25Q202.13-36.35 202.68-36.35L202.68-36.35Q202.98-36.35 203.53-36.3 204.08-36.25 204.98-36.25L204.98-36.25Q206.13-36.25 206.91-35.35 207.68-34.45 208.58-32.8L208.58-32.8 209.08-31.9Q209.68-30.8 210.53-29.55L210.53-29.55 211.28-28.4 211.28-31.15ZM237.68-35.4Q241.08-35.4 242.85-34.25 244.63-33.1 245.33-32.13 246.03-31.15 246.23-30.95L246.23-30.95Q246.63-30.5 246.63-30L246.63-30Q246.63-29.4 246.18-28.95L246.18-28.95Q245.73-28.5 245.05-27.95 244.38-27.4 243.83-27L243.83-27Q243.58-26.85 243.38-26.85L243.38-26.85Q242.93-26.85 242.48-27.3L242.48-27.3Q242.38-27.4 241.03-28.98 239.68-30.55 236.98-30.55L236.98-30.55Q234.93-30.55 233.43-28.38 231.93-26.2 231.15-23.13 230.38-20.05 230.38-17.4L230.38-17.4Q230.38-14.65 231.18-11.55 231.98-8.45 233.75-6.25 235.53-4.05 238.23-4.05L238.23-4.05Q241.83-4.05 243.73-6.85L243.73-6.85Q244.53-8.15 244.78-9.7L244.78-9.7 243.33-9.7 241.08-9.75 236.03-9.8Q235.18-9.8 235.18-10.6L235.18-10.6 235.18-12.55Q235.18-13.05 235.33-13.18 235.48-13.3 235.73-13.3L235.73-13.3 238.03-13.3 248.28-13.55Q248.73-13.55 248.95-13.1 249.18-12.65 249.13-11.9L249.13-11.9Q249.13-10.15 248.48-7.38 247.83-4.6 245.28-1.98 242.73 0.65 237.68 0.65L237.68 0.65Q233.93 0.65 231.25-2.2 228.58-5.05 227.25-9.53 225.93-14 225.93-18.7L225.93-18.7Q225.93-23.1 227.55-26.95 229.18-30.8 231.9-33.1 234.63-35.4 237.68-35.4L237.68-35.4ZM271.57-34.6Q272.67-34.6 275.07-34.7L275.07-34.7 277.77-34.8 283.22-34.75 285.72-34.7Q286.47-34.65 287.77-34.65L287.77-34.65Q288.32-34.65 288.5-34.5 288.67-34.35 288.67-34L288.67-34 288.62-33.15 288.67-27.3 288.67-24.8 288.67-24.4Q288.67-24 288.55-23.88 288.42-23.75 287.92-23.75L287.92-23.75Q287.12-23.75 285.67-23.9L285.67-23.9Q284.92-23.95 284.17-24 283.42-24.05 282.87-24.05L282.87-24.05 277.57-24.05Q276.67-24.05 275.47-23.95L275.47-23.95 274.42-23.85Q274.37-23.55 274.37-22.95L274.37-22.95 274.37-21.3Q274.37-20.7 274.27-19.9L274.27-19.9 274.17-19.25 275.27-19.25 277.27-19.3 280.87-19.3Q282.12-19.3 283.82-19.4L283.82-19.4Q285.12-19.5 285.52-19.5L285.52-19.5Q286.12-19.5 286.32-19.35 286.52-19.2 286.52-18.9L286.52-18.9Q286.52-18.25 286.27-17.45L286.27-17.45Q286.22-17.1 286.07-17 285.92-16.9 285.57-16.9L285.57-16.9 283.57-16.95 278.92-17.05 276.27-17.05Q275.02-17.05 274.32-17L274.32-17 274.32-12.15Q274.32-8.55 274.17-6.3L274.17-6.3Q274.07-5 274.07-3.75L274.07-3.75 274.12-0.8Q274.12-0.25 273.87-0.15 273.62-0.05 272.97-0.05L272.97-0.05 269.52-0.05Q269.07-0.1 268.97-0.35 268.87-0.6 268.87-1.05 268.87-1.5 268.87-1.8L268.87-1.8Q268.77-2.6 268.77-4.15L268.77-4.15 268.82-8.35 268.92-13.6 269.02-16.8 268.97-18.25Q268.82-19.4 268.82-21.2L268.82-21.2Q268.82-22.35 268.92-23.85L268.92-23.85 268.97-25.6 268.97-30.1Q268.97-30.6 269.07-31.9L269.07-31.9 269.17-33.7 269.17-33.9Q269.17-34.4 269.35-34.55 269.52-34.7 269.87-34.7L269.87-34.7Q270.22-34.7 270.65-34.65 271.07-34.6 271.57-34.6L271.57-34.6ZM301.72-34.9L301.72-14.9Q301.72-13.8 301.85-13 301.97-12.2 302.6-11.48 303.22-10.75 304.62-10.75L304.62-10.75Q306.57-10.75 307.27-12.23 307.97-13.7 307.97-15.45L307.97-15.45 308.02-17.95Q308.17-23.5 308.17-24.15L308.17-24.15Q308.17-25.55 308.12-26.05L308.12-26.05Q308.12-27.8 307.92-31.4L307.92-31.4 307.82-34.15Q307.82-35.05 308.07-35.4 308.32-35.75 309.02-35.75L309.02-35.75 315.37-35.75 316.12-35.8Q316.62-35.8 316.95-35.5 317.27-35.2 317.37-34.3L317.37-34.3Q317.47-33.45 317.47-28.4L317.47-28.4 317.42-17.65Q317.42-14.85 316.52-10.93 315.62-7 312.77-3.65 309.92-0.3 304.62-0.3L304.62-0.3Q292.72-0.3 291.82-11.7L291.82-11.7Q291.77-12.2 291.77-13.7L291.77-13.7Q291.77-15.25 291.87-19.15L291.87-19.15Q292.02-23.65 291.97-25.85L291.97-25.85Q291.97-28.85 291.87-32.15L291.87-32.15Q291.82-33.1 291.82-34.1L291.82-34.1Q291.82-34.3 291.8-34.85 291.77-35.4 292-35.65 292.22-35.9 292.82-35.9L292.82-35.9 295.72-35.85Q296.72-35.85 297.17-35.9L297.17-35.9Q298.27-36 298.97-36L298.97-36 300.97-35.95Q301.42-35.95 301.55-35.73 301.67-35.5 301.72-34.9L301.72-34.9ZM346.77-35.95Q347.37-35.9 347.49-35.65 347.62-35.4 347.59-34.98 347.57-34.55 347.57-34.35L347.57-34.35Q347.62-33.7 347.32-33.45 347.02-33.2 346.37-33.2L346.37-33.2Q345.97-33.2 344.84-33.15 343.72-33.1 342.12-33.15L342.12-33.15 341.92-33.15 341.82-24.1 341.77-15.3Q341.77-13.3 341.99-10.23 342.22-7.15 342.27-6.35L342.27-6.35Q342.57-2.35 342.57-1.85L342.57-1.85Q342.62-0.85 342.12-0.55 341.62-0.25 340.37-0.25L340.37-0.25 338.17-0.3Q337.92-0.3 329.97-0.45L329.97-0.45 326.87-0.5Q326.37-0.5 326.37-1.5L326.37-1.5Q326.37-1.85 326.47-2.85L326.47-2.85Q326.57-4.15 326.57-4.85L326.57-4.85Q326.47-6.15 326.47-9.4L326.47-9.4Q326.47-13.75 326.59-18.7 326.72-23.65 326.92-26.15L326.92-26.15Q327.02-27.45 327.02-29.65L327.02-29.65Q327.02-32.1 326.87-33.35L326.87-33.35 325.97-33.4 321.82-33.3Q321.42-33.3 321.42-34.1L321.42-34.1 321.47-35.2Q321.47-35.6 321.59-35.73 321.72-35.85 322.02-35.85L322.02-35.85Q322.22-35.85 322.52-35.8 322.82-35.75 323.22-35.75L323.22-35.75 333.87-35.8 342.57-35.9Q344.62-35.95 346.77-35.95L346.77-35.95ZM361.82-34.9L361.82-14.9Q361.82-13.8 361.94-13 362.07-12.2 362.69-11.48 363.32-10.75 364.72-10.75L364.72-10.75Q366.67-10.75 367.37-12.23 368.07-13.7 368.07-15.45L368.07-15.45 368.12-17.95Q368.27-23.5 368.27-24.15L368.27-24.15Q368.27-25.55 368.22-26.05L368.22-26.05Q368.22-27.8 368.02-31.4L368.02-31.4 367.92-34.15Q367.92-35.05 368.17-35.4 368.42-35.75 369.12-35.75L369.12-35.75 375.47-35.75 376.22-35.8Q376.72-35.8 377.04-35.5 377.37-35.2 377.47-34.3L377.47-34.3Q377.57-33.45 377.57-28.4L377.57-28.4 377.52-17.65Q377.52-14.85 376.62-10.93 375.72-7 372.87-3.65 370.02-0.3 364.72-0.3L364.72-0.3Q352.82-0.3 351.92-11.7L351.92-11.7Q351.87-12.2 351.87-13.7L351.87-13.7Q351.87-15.25 351.97-19.15L351.97-19.15Q352.12-23.65 352.07-25.85L352.07-25.85Q352.07-28.85 351.97-32.15L351.97-32.15Q351.92-33.1 351.92-34.1L351.92-34.1Q351.92-34.3 351.89-34.85 351.87-35.4 352.09-35.65 352.32-35.9 352.92-35.9L352.92-35.9 355.82-35.85Q356.82-35.85 357.27-35.9L357.27-35.9Q358.37-36 359.07-36L359.07-36 361.07-35.95Q361.52-35.95 361.64-35.73 361.77-35.5 361.82-34.9L361.82-34.9ZM405.91-2.05Q407.26-0.7 407.26-0.2L407.26-0.2Q407.26-0.1 407.01 0.15L407.01 0.15Q406.56 0.45 404.76 0.45L404.76 0.45Q403.46 0.45 403.11 0.28 402.76 0.1 402.59-0.3 402.41-0.7 402.31-0.9L402.31-0.9Q402.16-1.2 401.09-2.63 400.01-4.05 399.46-4.8L399.46-4.8Q396.81-8.2 394.86-10.95L394.86-10.95Q393.66-12.65 390.41-16.8L390.41-16.8 389.61-17.8 386.16-22.1 385.96-20.1Q385.76-18.6 385.86-16.5L385.86-16.5Q386.01-15.1 386.06-9.25 386.11-3.4 386.11-0.7L386.11-0.7Q386.11 0.1 385.51 0.33 384.91 0.55 384.11 0.55L384.11 0.55Q383.76 0.55 383.66 0.25 383.56-0.05 383.54-0.4 383.51-0.75 383.51-0.85L383.51-0.85Q383.41-1.65 383.41-3.2L383.41-3.2Q383.41-4.2 383.46-4.7L383.46-4.7Q383.51-7.4 383.61-14.13 383.71-20.85 383.71-26.2L383.71-26.2Q383.71-31.95 383.56-32.9L383.56-32.9Q383.51-33.3 383.51-33.95L383.51-33.95Q383.51-34.7 383.74-34.9 383.96-35.1 384.41-35.1L384.41-35.1Q385.41-35.1 386.36-35.05L386.36-35.05 391.81-34.95Q394.81-34.95 398.06-33.9 401.31-32.85 401.31-30L401.31-30Q401.31-27.3 399.31-25.8 397.31-24.3 394.84-23.75 392.36-23.2 390.51-23.2L390.51-23.2Q389.86-23.2 389.81-23.25L389.81-23.25Q390.11-22.95 393.76-17.95L393.76-17.95Q404.76-3.2 405.91-2.05L405.91-2.05ZM386.01-25.25Q387.66-25.25 388.51-25.3L388.51-25.3Q391.41-25.4 393.01-25.7L393.01-25.7Q395.31-26.1 396.49-26.8 397.66-27.5 397.66-29L397.66-29Q397.66-30 396.61-30.73 395.56-31.45 394.09-31.83 392.61-32.2 391.51-32.2L391.51-32.2Q390.26-32.25 388.01-32.25L388.01-32.25 386.31-32.25 386.01-25.25ZM432.31-33.25L432.31-32.7Q432.31-31.55 432.11-31.55L432.11-31.55Q431.81-31.55 431.44-31.63 431.06-31.7 430.51-31.7L430.51-31.7 422.51-31.7 416.31-31.75Q416.01-31.75 414.06-31.6L414.06-31.6 412.91-31.5 412.81-30.15Q412.76-29.4 412.76-27.8L412.76-27.8Q412.76-27 412.86-25.7L412.86-25.7Q412.96-24.5 412.96-23.95L412.96-23.95 412.96-21.95Q412.96-21.15 413.01-20.7L413.01-20.7Q413.46-20.65 414.36-20.65L414.36-20.65 416.36-20.65Q416.66-20.65 417.56-20.75L417.56-20.75Q418.86-20.85 419.81-20.85L419.81-20.85Q420.21-20.85 422.61-20.7L422.61-20.7 423.71-20.65Q424.11-20.65 424.86-20.73 425.61-20.8 426.31-20.8L426.31-20.8 427.96-20.75Q429.26-20.65 429.76-20.65L429.76-20.65Q430.31-20.65 430.51-20.7L430.51-20.7 430.81-20.75Q431.16-20.75 431.31-20.53 431.46-20.3 431.41-20.1L431.41-20.1Q431.36-19.75 431.36-19.23 431.36-18.7 431.31-18.3L431.31-18.3Q431.26-17.9 431.16-17.82 431.06-17.75 430.56-17.75L430.56-17.75 428.56-17.95Q424.81-18.3 423.66-18.3L423.66-18.3Q419.41-18.3 417.41-18.15L417.41-18.15Q416.61-18.05 415.66-18.05 414.71-18.05 414.46-18.05L414.46-18.05Q413.51-18.05 413.06-18.1L413.06-18.1 412.91-17.3Q412.81-16.4 412.81-15.7L412.81-15.7Q412.81-15.1 412.91-14.3L412.91-14.3Q413.01-13.5 413.01-12.9L413.01-12.9 413.06-6.95 413.01-4.45Q412.96-4 412.96-3.2L412.96-3.2Q413.61-3.15 414.86-3.15L414.86-3.15Q415.91-3.1 418.11-3.1L418.11-3.1 420.81-3.05Q421.66-3 423.41-3L423.41-3Q424.46-3 426.16-3.1L426.16-3.1 428.26-3.15Q429.46-3.15 430.26-3.1 431.06-3.05 431.46-3.05L431.46-3.05Q431.86-3.05 431.94-2.9 432.01-2.75 432.01-2.25L432.01-2.25Q432.01-1.9 431.96-1.53 431.91-1.15 431.91-0.7L431.91-0.7Q431.91-0.35 431.66-0.23 431.41-0.1 430.86-0.1L430.86-0.1Q430.31-0.1 429.96-0.15L429.96-0.15Q428.61-0.3 424.51-0.3L424.51-0.3Q422.01-0.3 420.91-0.25L420.91-0.25Q420.06-0.2 418.11-0.2L418.11-0.2 413.46-0.25Q412.66-0.3 411.56-0.3L411.56-0.3Q410.86-0.3 410.64-0.48 410.41-0.65 410.41-1.05L410.41-1.05 410.46-1.85Q410.51-2.05 410.51-2.3L410.51-2.3Q410.51-2.45 410.46-3.03 410.41-3.6 410.41-5.15L410.41-5.15Q410.41-6.65 410.31-10.05L410.31-10.05Q410.16-12.85 410.16-15.45L410.16-15.45Q410.16-16.55 410.41-21.8L410.41-21.8Q410.46-22.85 410.51-23.9 410.56-24.95 410.56-25.8L410.56-25.8Q410.56-31.6 410.41-33.45L410.41-33.45Q410.26-34.65 411.86-34.65L411.86-34.65Q412.26-34.65 413.16-34.55L413.16-34.55Q413.96-34.45 414.36-34.45L414.36-34.45 417.51-34.55Q420.91-34.75 422.76-34.75L422.76-34.75Q424.91-34.75 428.81-34.65L428.81-34.65Q430.06-34.6 431.46-34.6L431.46-34.6Q432.06-34.6 432.21-34.3 432.36-34 432.34-33.68 432.31-33.35 432.31-33.25L432.31-33.25ZM447.51-35.25Q451.86-35.25 453.96-33.55 456.06-31.85 456.16-31.75L456.16-31.75Q456.66-31.4 456.66-31.05L456.66-31.05Q456.66-30.85 456.46-30.65L456.46-30.65Q456.31-30.45 455.86-29.8 455.41-29.15 455.16-29.15L455.16-29.15Q454.91-29.15 454.51-29.4L454.51-29.4 454.16-29.7Q450.36-32.45 447.66-32.45L447.66-32.45Q444.21-32.45 442.43-30.88 440.66-29.3 440.66-26.9L440.66-26.9Q440.66-24.85 442.13-23.4 443.61-21.95 446.01-20.65L446.01-20.65Q446.71-20.35 447.46-20.1L447.46-20.1Q449.96-19.15 451.83-18.07 453.71-17 455.21-14.83 456.71-12.65 456.71-9.35L456.71-9.35Q456.71-3.7 452.86-1.63 449.01 0.45 444.26 0.45L444.26 0.45Q441.51 0.45 439.28-0.8 437.06-2.05 436.11-3L436.11-3Q435.61-3.45 435.86-3.9L435.86-3.9Q435.91-4 436.28-4.7 436.66-5.4 436.96-5.4L436.96-5.4 437.06-5.4Q437.21-5.4 437.33-5.33 437.46-5.25 437.63-5.05 437.81-4.85 438.06-4.6L438.06-4.6Q438.71-3.95 440.61-3.13 442.51-2.3 443.76-2.3L443.76-2.3Q446.41-2.3 448.81-3.43 451.21-4.55 451.21-8.2L451.21-8.2Q451.21-9.75 449.83-10.9 448.46-12.05 445.56-13.6L445.56-13.6 443.41-14.8Q439.91-16.8 437.93-19.1 435.96-21.4 435.96-25.15L435.96-25.15Q435.96-28.25 437.73-30.55 439.51-32.85 442.18-34.05 444.86-35.25 447.51-35.25L447.51-35.25ZM466.71-6.5Q467.31-6.5 467.31-6.15L467.31-6.15Q467.31-6 467.16-5.7L467.16-5.7Q466.91-4.7 466.71-4.1L466.71-4.1Q466.66-3.8 466.36-3L466.36-3Q466.11-2.35 465.76-1.25L465.76-1.25Q465.46-0.5 464.96 1.4 464.46 3.3 464.46 3.55L464.46 3.55Q464.41 3.7 464.18 4.17 463.96 4.65 463.71 4.8L463.71 4.8Q463.41 4.9 462.31 4.9L462.31 4.9Q461.16 4.9 460.66 4.8L460.66 4.8Q460.21 4.8 460.11 4.63 460.01 4.45 460.03 4.2 460.06 3.95 460.06 3.8L460.06 3.8 461.26-0.6 462.11-3.65 462.76-5.55Q462.86-6 463.26-6.25 463.66-6.5 464.16-6.5L464.16-6.5 466.71-6.5ZM496.75-35.4Q500.15-35.4 501.93-34.25 503.7-33.1 504.4-32.13 505.1-31.15 505.3-30.95L505.3-30.95Q505.7-30.5 505.7-30L505.7-30Q505.7-29.4 505.25-28.95L505.25-28.95Q504.8-28.5 504.13-27.95 503.45-27.4 502.9-27L502.9-27Q502.65-26.85 502.45-26.85L502.45-26.85Q502-26.85 501.55-27.3L501.55-27.3Q501.45-27.4 500.1-28.98 498.75-30.55 496.05-30.55L496.05-30.55Q494-30.55 492.5-28.38 491-26.2 490.23-23.13 489.45-20.05 489.45-17.4L489.45-17.4Q489.45-14.65 490.25-11.55 491.05-8.45 492.82-6.25 494.6-4.05 497.3-4.05L497.3-4.05Q500.9-4.05 502.8-6.85L502.8-6.85Q503.6-8.15 503.85-9.7L503.85-9.7 502.4-9.7 500.15-9.75 495.1-9.8Q494.25-9.8 494.25-10.6L494.25-10.6 494.25-12.55Q494.25-13.05 494.4-13.18 494.55-13.3 494.8-13.3L494.8-13.3 497.1-13.3 507.35-13.55Q507.8-13.55 508.03-13.1 508.25-12.65 508.2-11.9L508.2-11.9Q508.2-10.15 507.55-7.38 506.9-4.6 504.35-1.98 501.8 0.65 496.75 0.65L496.75 0.65Q493 0.65 490.32-2.2 487.65-5.05 486.32-9.53 485-14 485-18.7L485-18.7Q485-23.1 486.63-26.95 488.25-30.8 490.98-33.1 493.7-35.4 496.75-35.4L496.75-35.4ZM522.55-34.9L522.55-14.9Q522.55-13.8 522.67-13 522.8-12.2 523.42-11.48 524.05-10.75 525.45-10.75L525.45-10.75Q527.4-10.75 528.1-12.23 528.8-13.7 528.8-15.45L528.8-15.45 528.85-17.95Q529-23.5 529-24.15L529-24.15Q529-25.55 528.95-26.05L528.95-26.05Q528.95-27.8 528.75-31.4L528.75-31.4 528.65-34.15Q528.65-35.05 528.9-35.4 529.15-35.75 529.85-35.75L529.85-35.75 536.2-35.75 536.95-35.8Q537.45-35.8 537.77-35.5 538.1-35.2 538.2-34.3L538.2-34.3Q538.3-33.45 538.3-28.4L538.3-28.4 538.25-17.65Q538.25-14.85 537.35-10.93 536.45-7 533.6-3.65 530.75-0.3 525.45-0.3L525.45-0.3Q513.55-0.3 512.65-11.7L512.65-11.7Q512.6-12.2 512.6-13.7L512.6-13.7Q512.6-15.25 512.7-19.15L512.7-19.15Q512.85-23.65 512.8-25.85L512.8-25.85Q512.8-28.85 512.7-32.15L512.7-32.15Q512.65-33.1 512.65-34.1L512.65-34.1Q512.65-34.3 512.62-34.85 512.6-35.4 512.82-35.65 513.05-35.9 513.65-35.9L513.65-35.9 516.55-35.85Q517.55-35.85 518-35.9L518-35.9Q519.1-36 519.8-36L519.8-36 521.8-35.95Q522.25-35.95 522.37-35.73 522.5-35.5 522.55-34.9L522.55-34.9ZM545.54-35.25Q546.19-35.2 546.82-35.23 547.44-35.25 547.89-35.25L547.89-35.25Q549-35.25 549.5-35.2L549.5-35.2Q550.1-35.15 550.35-34.95 550.6-34.75 550.6-34.4L550.6-34.4Q550.6-34.15 550.54-33.85 550.5-33.55 550.44-33.3L550.44-33.3Q549.89-29.05 549.85-24.55L549.85-24.55Q549.79-23.25 549.79-20.55L549.79-20.55 549.85-14.5Q549.89-13.75 549.89-12.95L549.89-12.95 549.94-10.95Q550.04-8.35 550.04-7.1L550.04-7.1Q550.04-6.15 550-5.95L550-5.95Q549.94-5.75 549.94-4.8L549.94-4.8 550-2.05Q550.04-1.45 550.04-0.55L550.04-0.55Q550.1 0.1 549.67 0.28 549.25 0.45 548.54 0.4L548.54 0.4 544 0.4Q543.25 0.45 543.04 0.08 542.85-0.3 542.79-1.15L542.79-1.15Q542.69-1.5 542.89-3L542.89-3Q543.1-4.4 543.1-5.4L543.1-5.4Q543.1-5.75 543.44-12.15L543.44-12.15Q543.75-16.85 543.75-17.3L543.75-17.3 543.85-22.2 543.94-26.75 544.04-29.45 544.14-31.25 544.14-33.35Q544.14-35.3 545.14-35.3L545.14-35.3Q545.39-35.3 545.54-35.25L545.54-35.25ZM574.94-30.7Q577.89-28.1 578.84-24.53 579.79-20.95 579.79-16.65L579.79-16.65Q579.79-14.4 579.04-11.6 578.29-8.8 576.97-6.4 575.64-4 573.89-2.85L573.89-2.85Q571.49-1.3 567.94-0.68 564.39-0.05 562.34-0.05L562.34-0.05 557.24-0.05Q556.69-0.05 556.54-0.3 556.39-0.55 556.54-0.85L556.54-0.85Q556.59-1 556.59-1.25L556.59-1.25Q556.59-1.45 556.57-1.78 556.54-2.1 556.54-2.7L556.54-2.7Q556.54-4.35 556.49-5.95L556.49-5.95 556.39-15 556.44-25.05Q556.44-26.35 556.39-27.58 556.34-28.8 556.29-29.7L556.29-29.7 556.19-32.85Q556.24-34 556.34-34.45 556.44-34.9 556.74-34.9L556.74-34.9 556.89-34.9Q557.09-34.9 557.34-34.83 557.59-34.75 557.79-34.75L557.79-34.75Q558.19-34.75 558.77-34.8 559.34-34.85 559.94-34.85L559.94-34.85 561.89-34.8Q564.69-34.8 566.94-34.55L566.94-34.55Q567.14-34.55 568.27-34.45 569.39-34.35 571.17-33.4 572.94-32.45 574.94-30.7L574.94-30.7ZM564.79-1.95Q568.24-1.75 571.09-3.2L571.09-3.2Q573.84-4.6 575.64-7.85 577.44-11.1 577.44-16.65L577.44-16.65Q577.44-22.15 575.67-25.48 573.89-28.8 571.19-30.45L571.19-30.45Q568.44-32.1 564.94-32.15L564.94-32.15 564.74-27.6Q564.59-25.15 564.59-20.85L564.59-20.85Q564.59-20.45 564.74-16.4L564.74-16.4Q564.89-14.7 564.89-13.2L564.89-13.2 564.84-6.75Q564.79-5.25 564.79-1.95L564.79-1.95ZM586.24-35.25Q586.89-35.2 587.51-35.23 588.14-35.25 588.59-35.25L588.59-35.25Q589.69-35.25 590.19-35.2L590.19-35.2Q590.79-35.15 591.04-34.95 591.29-34.75 591.29-34.4L591.29-34.4Q591.29-34.15 591.24-33.85 591.19-33.55 591.14-33.3L591.14-33.3Q590.59-29.05 590.54-24.55L590.54-24.55Q590.49-23.25 590.49-20.55L590.49-20.55 590.54-14.5Q590.59-13.75 590.59-12.95L590.59-12.95 590.64-10.95Q590.74-8.35 590.74-7.1L590.74-7.1Q590.74-6.15 590.69-5.95L590.69-5.95Q590.64-5.75 590.64-4.8L590.64-4.8 590.69-2.05Q590.74-1.45 590.74-0.55L590.74-0.55Q590.79 0.1 590.36 0.28 589.94 0.45 589.24 0.4L589.24 0.4 584.69 0.4Q583.94 0.45 583.74 0.08 583.54-0.3 583.49-1.15L583.49-1.15Q583.39-1.5 583.59-3L583.59-3Q583.79-4.4 583.79-5.4L583.79-5.4Q583.79-5.75 584.14-12.15L584.14-12.15Q584.44-16.85 584.44-17.3L584.44-17.3 584.54-22.2 584.64-26.75 584.74-29.45 584.84-31.25 584.84-33.35Q584.84-35.3 585.84-35.3L585.84-35.3Q586.09-35.3 586.24-35.25L586.24-35.25ZM610.89-31.15Q610.89-34.25 610.94-35L610.94-35Q610.94-35.95 611.59-36.15 612.24-36.35 613.49-36.35L613.49-36.35Q614.59-36.35 616.31-36.48 618.04-36.6 618.99-36.75L618.99-36.75Q619.69-36.8 619.99-36.52 620.29-36.25 620.29-35.6L620.29-35.6Q620.29-35.4 620.19-34.5L620.19-34.5Q620.09-33.75 620.09-24.55L620.09-24.55 620.09-13.25Q620.09-10.7 620.16-7.63 620.24-4.55 620.34-2.1 620.44 0.35 620.44-0.75L620.44-0.75Q620.44 0.05 619.64 0.05L619.64 0.05Q619.29 0.05 619.04 0L619.04 0Q618.84-0.05 618.24-0.05L618.24-0.05Q617.64-0.05 616.34 0.05L616.34 0.05Q614.94 0.15 614.39 0.15L614.39 0.15Q613.44 0.15 612.96-0.25 612.49-0.65 611.99-1.7L611.99-1.7 611.14-3.4Q609.64-6.75 608.49-8.65L608.49-8.65Q607.84-9.75 605.19-14.7L605.19-14.7 602.99-18.85 602.99-16.95 602.99-15.8Q602.99-15.4 602.96-14.8 602.94-14.2 602.99-13.45L602.99-13.45Q602.99-10.85 603.06-6.65 603.14-2.45 603.29-1.6L603.29-1.6Q603.34-1.35 603.34-1L603.34-1Q603.34-0.5 603.14-0.38 602.94-0.25 602.39-0.3L602.39-0.3Q601.59-0.3 600.51-0.2 599.44-0.1 598.49 0L598.49 0Q597.74 0.1 597.51-0.25 597.29-0.6 597.34-1.8L597.34-1.8Q597.34-3.6 597.19-8.15L597.19-8.15Q596.99-12.9 596.94-16.4L596.94-16.4Q596.94-19.95 597.09-23.6L597.09-23.6Q597.19-28.2 597.19-29.9L597.19-29.9Q597.19-32.2 597.04-33.25L597.04-33.25Q596.94-34.15 596.94-34.4L596.94-34.4Q596.94-35.3 597.24-35.63 597.54-35.95 598.04-35.95L598.04-35.95Q598.29-35.95 599.04-35.93 599.79-35.9 601.19-36.25L601.19-36.25Q601.74-36.35 602.29-36.35L602.29-36.35Q602.59-36.35 603.14-36.3 603.69-36.25 604.59-36.25L604.59-36.25Q605.74-36.25 606.51-35.35 607.29-34.45 608.19-32.8L608.19-32.8 608.69-31.9Q609.29-30.8 610.14-29.55L610.14-29.55 610.89-28.4 610.89-31.15ZM637.28-35.4Q640.68-35.4 642.46-34.25 644.23-33.1 644.93-32.13 645.63-31.15 645.83-30.95L645.83-30.95Q646.23-30.5 646.23-30L646.23-30Q646.23-29.4 645.78-28.95L645.78-28.95Q645.33-28.5 644.66-27.95 643.98-27.4 643.43-27L643.43-27Q643.18-26.85 642.98-26.85L642.98-26.85Q642.53-26.85 642.08-27.3L642.08-27.3Q641.98-27.4 640.63-28.98 639.28-30.55 636.58-30.55L636.58-30.55Q634.53-30.55 633.03-28.38 631.53-26.2 630.76-23.13 629.98-20.05 629.98-17.4L629.98-17.4Q629.98-14.65 630.78-11.55 631.58-8.45 633.36-6.25 635.13-4.05 637.83-4.05L637.83-4.05Q641.43-4.05 643.33-6.85L643.33-6.85Q644.13-8.15 644.38-9.7L644.38-9.7 642.93-9.7 640.68-9.75 635.63-9.8Q634.78-9.8 634.78-10.6L634.78-10.6 634.78-12.55Q634.78-13.05 634.93-13.18 635.08-13.3 635.33-13.3L635.33-13.3 637.63-13.3 647.88-13.55Q648.33-13.55 648.56-13.1 648.78-12.65 648.73-11.9L648.73-11.9Q648.73-10.15 648.08-7.38 647.43-4.6 644.88-1.98 642.33 0.65 637.28 0.65L637.28 0.65Q633.53 0.65 630.86-2.2 628.18-5.05 626.86-9.53 625.53-14 625.53-18.7L625.53-18.7Q625.53-23.1 627.16-26.95 628.78-30.8 631.51-33.1 634.23-35.4 637.28-35.4L637.28-35.4ZM678.98-35.25Q683.33-35.25 685.43-33.55 687.53-31.85 687.63-31.75L687.63-31.75Q688.13-31.4 688.13-31.05L688.13-31.05Q688.13-30.85 687.93-30.65L687.93-30.65Q687.78-30.45 687.33-29.8 686.88-29.15 686.63-29.15L686.63-29.15Q686.38-29.15 685.98-29.4L685.98-29.4 685.63-29.7Q681.83-32.45 679.13-32.45L679.13-32.45Q675.68-32.45 673.9-30.88 672.13-29.3 672.13-26.9L672.13-26.9Q672.13-24.85 673.6-23.4 675.08-21.95 677.48-20.65L677.48-20.65Q678.18-20.35 678.93-20.1L678.93-20.1Q681.43-19.15 683.3-18.07 685.18-17 686.68-14.83 688.18-12.65 688.18-9.35L688.18-9.35Q688.18-3.7 684.33-1.63 680.48 0.45 675.73 0.45L675.73 0.45Q672.98 0.45 670.75-0.8 668.53-2.05 667.58-3L667.58-3Q667.08-3.45 667.33-3.9L667.33-3.9Q667.38-4 667.75-4.7 668.13-5.4 668.43-5.4L668.43-5.4 668.53-5.4Q668.68-5.4 668.8-5.33 668.93-5.25 669.1-5.05 669.28-4.85 669.53-4.6L669.53-4.6Q670.18-3.95 672.08-3.13 673.98-2.3 675.23-2.3L675.23-2.3Q677.88-2.3 680.28-3.43 682.68-4.55 682.68-8.2L682.68-8.2Q682.68-9.75 681.3-10.9 679.93-12.05 677.03-13.6L677.03-13.6 674.88-14.8Q671.38-16.8 669.4-19.1 667.43-21.4 667.43-25.15L667.43-25.15Q667.43-28.25 669.2-30.55 670.98-32.85 673.65-34.05 676.33-35.25 678.98-35.25L678.98-35.25ZM694.58-34.6L700.28-34.55Q700.78-34.55 700.93-34.38 701.08-34.2 701.08-33.85L701.08-33.85Q701.08-33.65 701.1-33.13 701.13-32.6 701.13-31.4L701.13-31.4Q701.13-30.95 701.03-29.9 700.93-28.85 700.88-28.15L700.88-28.15Q700.58-25.35 700.58-24.5L700.58-24.5 700.58-21.2Q700.58-19.85 700.63-19.1L700.63-19.1Q701.33-19.85 701.83-20.6L701.83-20.6 703.68-23Q704.88-24.55 706.53-26.85 708.18-29.15 709.08-30.45L709.08-30.45Q709.13-30.5 710.03-31.65L710.03-31.65Q710.18-31.85 710.98-32.83 711.78-33.8 711.93-34.3L711.93-34.3Q712.08-34.75 712.35-34.85 712.63-34.95 712.93-34.98 713.23-35 713.38-35L713.38-35Q713.93-35 714.48-35.05 715.03-35.1 715.48-35.15L715.48-35.15 715.68-35.15Q716.58-35.15 716.58-34.8L716.58-34.8Q716.58-34.6 716.35-34.38 716.13-34.15 716.08-34.1L716.08-34.1Q715.33-33.25 713.83-31.43 712.33-29.6 711.23-28.2L711.23-28.2Q710.08-26.55 708-23.75 705.93-20.95 705.43-20.35L705.43-20.35Q704.93-19.75 703.9-18.05 702.88-16.35 702.88-16.15L702.88-16.15Q702.88-15.9 703.35-15.45 703.83-15 704.18-14.65L704.18-14.65Q704.63-14.1 705.93-12.73 707.23-11.35 707.98-10.6L707.98-10.6 709.03-9.45Q712.03-6.05 713.23-5L713.23-5Q714.53-3.8 716.05-2.18 717.58-0.55 717.83-0.3L717.83-0.3 717.93-0.1Q717.93 0.1 717.6 0.23 717.28 0.35 716.93 0.25L716.93 0.25 715.33 0.3 712.78 0.4Q711.53 0.45 710.83-0.15L710.83-0.15Q710.68-0.3 710.1-0.85 709.53-1.4 708.98-2L708.98-2Q707.48-3.6 705.53-5.55L705.53-5.55Q704.98-6.1 704.23-6.7L704.23-6.7 702.68-8.1 700.78-9.7 700.78-5.5Q700.78-4.4 700.93-2.95L700.93-2.95 701.03-0.7Q701.03-0.2 700.83-0.1 700.63 0 700.4 0 700.18 0 700.08 0L700.08 0 699.08-0.05 697.43-0.15 695.23-0.05 693.58 0Q693.23 0 693.15-0.2 693.08-0.4 693.08-1.15L693.08-1.15 693.03-13.4 693.03-18.1Q693.03-24.05 692.93-25.15L692.93-25.15Q692.88-25.75 692.88-27.05L692.88-27.05 692.93-30.35 692.98-34.3Q692.98-34.75 693.48-34.75L693.48-34.75Q693.78-34.75 694.05-34.68 694.33-34.6 694.58-34.6L694.58-34.6ZM725.07-35.25Q725.72-35.2 726.35-35.23 726.97-35.25 727.42-35.25L727.42-35.25Q728.52-35.25 729.02-35.2L729.02-35.2Q729.62-35.15 729.87-34.95 730.12-34.75 730.12-34.4L730.12-34.4Q730.12-34.15 730.07-33.85 730.02-33.55 729.97-33.3L729.97-33.3Q729.42-29.05 729.37-24.55L729.37-24.55Q729.32-23.25 729.32-20.55L729.32-20.55 729.37-14.5Q729.42-13.75 729.42-12.95L729.42-12.95 729.47-10.95Q729.57-8.35 729.57-7.1L729.57-7.1Q729.57-6.15 729.52-5.95L729.52-5.95Q729.47-5.75 729.47-4.8L729.47-4.8 729.52-2.05Q729.57-1.45 729.57-0.55L729.57-0.55Q729.62 0.1 729.2 0.28 728.77 0.45 728.07 0.4L728.07 0.4 723.52 0.4Q722.77 0.45 722.57 0.08 722.37-0.3 722.32-1.15L722.32-1.15Q722.22-1.5 722.42-3L722.42-3Q722.62-4.4 722.62-5.4L722.62-5.4Q722.62-5.75 722.97-12.15L722.97-12.15Q723.27-16.85 723.27-17.3L723.27-17.3 723.37-22.2 723.47-26.75 723.57-29.45 723.67-31.25 723.67-33.35Q723.67-35.3 724.67-35.3L724.67-35.3Q724.92-35.3 725.07-35.25L725.07-35.25ZM756.67-33.25L756.67-32.7Q756.67-31.55 756.47-31.55L756.47-31.55Q756.17-31.55 755.8-31.63 755.42-31.7 754.87-31.7L754.87-31.7 746.87-31.7 740.67-31.75Q740.37-31.75 738.42-31.6L738.42-31.6 737.27-31.5 737.17-30.15Q737.12-29.4 737.12-27.8L737.12-27.8Q737.12-27 737.22-25.7L737.22-25.7Q737.32-24.5 737.32-23.95L737.32-23.95 737.32-21.95Q737.32-21.15 737.37-20.7L737.37-20.7Q737.82-20.65 738.72-20.65L738.72-20.65 740.72-20.65Q741.02-20.65 741.92-20.75L741.92-20.75Q743.22-20.85 744.17-20.85L744.17-20.85Q744.57-20.85 746.97-20.7L746.97-20.7 748.07-20.65Q748.47-20.65 749.22-20.73 749.97-20.8 750.67-20.8L750.67-20.8 752.32-20.75Q753.62-20.65 754.12-20.65L754.12-20.65Q754.67-20.65 754.87-20.7L754.87-20.7 755.17-20.75Q755.52-20.75 755.67-20.53 755.82-20.3 755.77-20.1L755.77-20.1Q755.72-19.75 755.72-19.23 755.72-18.7 755.67-18.3L755.67-18.3Q755.62-17.9 755.52-17.82 755.42-17.75 754.92-17.75L754.92-17.75 752.92-17.95Q749.17-18.3 748.02-18.3L748.02-18.3Q743.77-18.3 741.77-18.15L741.77-18.15Q740.97-18.05 740.02-18.05 739.07-18.05 738.82-18.05L738.82-18.05Q737.87-18.05 737.42-18.1L737.42-18.1 737.27-17.3Q737.17-16.4 737.17-15.7L737.17-15.7Q737.17-15.1 737.27-14.3L737.27-14.3Q737.37-13.5 737.37-12.9L737.37-12.9 737.42-6.95 737.37-4.45Q737.32-4 737.32-3.2L737.32-3.2Q737.97-3.15 739.22-3.15L739.22-3.15Q740.27-3.1 742.47-3.1L742.47-3.1 745.17-3.05Q746.02-3 747.77-3L747.77-3Q748.82-3 750.52-3.1L750.52-3.1 752.62-3.15Q753.82-3.15 754.62-3.1 755.42-3.05 755.82-3.05L755.82-3.05Q756.22-3.05 756.3-2.9 756.37-2.75 756.37-2.25L756.37-2.25Q756.37-1.9 756.32-1.53 756.27-1.15 756.27-0.7L756.27-0.7Q756.27-0.35 756.02-0.23 755.77-0.1 755.22-0.1L755.22-0.1Q754.67-0.1 754.32-0.15L754.32-0.15Q752.97-0.3 748.87-0.3L748.87-0.3Q746.37-0.3 745.27-0.25L745.27-0.25Q744.42-0.2 742.47-0.2L742.47-0.2 737.82-0.25Q737.02-0.3 735.92-0.3L735.92-0.3Q735.22-0.3 735-0.48 734.77-0.65 734.77-1.05L734.77-1.05 734.82-1.85Q734.87-2.05 734.87-2.3L734.87-2.3Q734.87-2.45 734.82-3.03 734.77-3.6 734.77-5.15L734.77-5.15Q734.77-6.65 734.67-10.05L734.67-10.05Q734.52-12.85 734.52-15.45L734.52-15.45Q734.52-16.55 734.77-21.8L734.77-21.8Q734.82-22.85 734.87-23.9 734.92-24.95 734.92-25.8L734.92-25.8Q734.92-31.6 734.77-33.45L734.77-33.45Q734.62-34.65 736.22-34.65L736.22-34.65Q736.62-34.65 737.52-34.55L737.52-34.55Q738.32-34.45 738.72-34.45L738.72-34.45 741.87-34.55Q745.27-34.75 747.12-34.75L747.12-34.75Q749.27-34.75 753.17-34.65L753.17-34.65Q754.42-34.6 755.82-34.6L755.82-34.6Q756.42-34.6 756.57-34.3 756.72-34 756.7-33.68 756.67-33.35 756.67-33.25L756.67-33.25ZM771.87-35.25Q776.22-35.25 778.32-33.55 780.42-31.85 780.52-31.75L780.52-31.75Q781.02-31.4 781.02-31.05L781.02-31.05Q781.02-30.85 780.82-30.65L780.82-30.65Q780.67-30.45 780.22-29.8 779.77-29.15 779.52-29.15L779.52-29.15Q779.27-29.15 778.87-29.4L778.87-29.4 778.52-29.7Q774.72-32.45 772.02-32.45L772.02-32.45Q768.57-32.45 766.79-30.88 765.02-29.3 765.02-26.9L765.02-26.9Q765.02-24.85 766.49-23.4 767.97-21.95 770.37-20.65L770.37-20.65Q771.07-20.35 771.82-20.1L771.82-20.1Q774.32-19.15 776.19-18.07 778.07-17 779.57-14.83 781.07-12.65 781.07-9.35L781.07-9.35Q781.07-3.7 777.22-1.63 773.37 0.45 768.62 0.45L768.62 0.45Q765.87 0.45 763.64-0.8 761.42-2.05 760.47-3L760.47-3Q759.97-3.45 760.22-3.9L760.22-3.9Q760.27-4 760.64-4.7 761.02-5.4 761.32-5.4L761.32-5.4 761.42-5.4Q761.57-5.4 761.69-5.33 761.82-5.25 761.99-5.05 762.17-4.85 762.42-4.6L762.42-4.6Q763.07-3.95 764.97-3.13 766.87-2.3 768.12-2.3L768.12-2.3Q770.77-2.3 773.17-3.43 775.57-4.55 775.57-8.2L775.57-8.2Q775.57-9.75 774.19-10.9 772.82-12.05 769.92-13.6L769.92-13.6 767.77-14.8Q764.27-16.8 762.29-19.1 760.32-21.4 760.32-25.15L760.32-25.15Q760.32-28.25 762.09-30.55 763.87-32.85 766.54-34.05 769.22-35.25 771.87-35.25L771.87-35.25ZM789.17-6.8Q792.97-6.8 792.97-2.35L792.97-2.35Q792.97-1.15 791.79-0.28 790.62 0.6 789.17 0.6L789.17 0.6Q787.67 0.6 786.62-0.43 785.57-1.45 785.57-3.4L785.57-3.4Q785.57-5.4 786.59-6.1 787.62-6.8 789.17-6.8L789.17-6.8Z" opacity="1" transform="matrix(1,0,0,1,0,0)" fill="#8d021f" class="slogan-text-1" data-fill-palette-color="secondary" id="text-1"></path></svg></g></svg></g></svg></g></svg></g><g><svg viewBox="0 0 245.65351679999995 245.49875508441593" height="245.49875508441593" width="245.65351679999995"><g><svg xmlns="http://www.w3.org/2000/svg" xml:space="preserve" viewBox="0 0 100 99.937" x="0" y="0" height="245.49875508441593" width="245.65351679999995" class="icon-icon-0" data-fill-palette-color="accent" id="icon-0"><path d="M100 0c-6.067 0-13.762 3.957-21.062 9.188l-15.126 15.03-18.718-1.75 2.031-2.03c0.28-0.28 0.28-0.721 0-1l-1.844-1.844a0.7 0.7 0 0 0-1 0l-4.375 4.375-9.593-0.907 2.187-2.187a0.74 0.74 0 0 0 0-1.031l-1.844-1.813a0.7 0.7 0 0 0-1 0l-4.562 4.563L9.28 19.125l-5 5.344 17.063 5.312 14.906 5.5 10.094 6.344-14.188 14.094c-4.794 6.334-8.698 12.422-11.687 17.469L2.28 71.78 0 74.062l15.188 8.657c-0.905 1.768-1.407 2.812-1.407 2.812s1.053-0.473 2.813-1.344l8.343 15.75 2.125-2.124-0.812-18.844c5.07-2.945 11.17-6.791 17.531-11.594l14.125-14.156 5.969 9.343 5.656 14.563 5.719 18.219 5.188-5.125-1.657-18 3.531-3.531a0.74 0.74 0 0 0 0-1.032l-1.843-1.812a0.7 0.7 0 0 0-1 0L78.28 67.03l-0.625-6.75 4.656-4.656a0.703 0.703 0 0 0 0-1l-1.843-1.844a0.7 0.7 0 0 0-1 0l-2.313 2.313-1.781-19.313 15.469-15.5C96.054 13.174 100 5.733 100 0" fill="#8d021f" data-fill-palette-color="accent"></path></svg></g></svg></g></svg></g><defs></defs></svg><rect width="395.52" height="146.62555790927203" fill="none" stroke="none" visibility="hidden"></rect></g></svg></g></svg>